<svg width="24" height="25" viewBox="0 0 24 25" fill="none" xmlns="http://www.w3.org/2000/svg">
<g clip-path="url(#clip0_105_51)">
<path fill-rule="evenodd" clip-rule="evenodd" d="M12.997 10.9039V10.8688C12.9898 10.8806 12.9799 10.8924 12.9736 10.9039H12.997Z" fill="white"/>
<path fill-rule="evenodd" clip-rule="evenodd" d="M0 0.125V24.125H24V0.125H0ZM7.4649 20.0636H3.90414V9.35081H7.4649V20.0636ZM5.68452 7.88866H5.66099C4.46653 7.88866 3.69231 7.06575 3.69231 6.03718C3.69231 4.98603 4.48916 4.18643 5.70783 4.18643C6.92677 4.18643 7.67583 4.98603 7.69915 6.03718C7.69915 7.06575 6.92677 7.88866 5.68452 7.88866ZM20.3077 20.0636H16.746V14.3322C16.746 12.8927 16.2314 11.9101 14.9423 11.9101C13.9578 11.9101 13.3728 12.5717 13.1151 13.2125C13.0214 13.4415 12.9969 13.7597 12.9969 14.0807V20.0636H9.43453C9.43453 20.0636 9.48227 10.3559 9.43453 9.35086H12.9969V10.8689C13.4702 10.1406 14.3149 9.09937 16.2069 9.09937C18.5508 9.09937 20.3077 10.6301 20.3077 13.9204V20.0636Z" fill="white"/>
</g>
<defs>
<clipPath id="clip0_105_51">
<rect width="24" height="24" fill="white" transform="translate(0 0.125)"/>
</clipPath>
</defs>
</svg>
