<svg width="24" height="25" viewBox="0 0 24 25" fill="none" xmlns="http://www.w3.org/2000/svg">
<path d="M20 2.125H8C6.9 2.125 6 3.025 6 4.125V16.125C6 17.225 6.9 18.125 8 18.125H20C21.1 18.125 22 17.225 22 16.125V4.125C22 3.025 21.1 2.125 20 2.125ZM18 7.125H15V12.625C15 14.005 13.88 15.125 12.5 15.125C11.12 15.125 10 14.005 10 12.625C10 11.245 11.12 10.125 12.5 10.125C13.07 10.125 13.58 10.315 14 10.635V5.125H18V7.125ZM4 6.125H2V20.125C2 21.225 2.9 22.125 4 22.125H18V20.125H4V6.125Z" fill="white"/>
</svg>
