<svg width="28" height="29" viewBox="0 0 28 29" fill="none" xmlns="http://www.w3.org/2000/svg">
<path d="M26.9086 5.9639C25.8979 4.76243 24.0319 4.27234 20.4681 4.27234H7.53164C3.88631 4.27234 1.98863 4.79404 0.981716 6.07319C0 7.32037 0 9.15798 0 11.7013V16.5488C0 21.476 1.1648 23.9777 7.53164 23.9777H20.4682C23.5587 23.9777 25.2712 23.5452 26.3791 22.4849C27.5152 21.3976 28 19.6223 28 16.5488V11.7013C28 9.01915 27.924 7.1707 26.9086 5.9639ZM17.9761 14.7943L12.1017 17.8644C11.9704 17.9331 11.8267 17.9671 11.6833 17.9671C11.5209 17.9671 11.3589 17.9234 11.2154 17.8365C10.9451 17.6728 10.7801 17.3799 10.7801 17.0639V10.9433C10.7801 10.6279 10.9447 10.3352 11.2144 10.1714C11.4842 10.0076 11.8197 9.99635 12.0996 10.1418L17.974 13.1921C18.2729 13.3473 18.4606 13.6559 18.461 13.9925C18.4614 14.3294 18.2745 14.6384 17.9761 14.7943Z" fill="white"/>
</svg>
